<svg width="21" height="21" viewBox="0 0 21 21" fill="none" xmlns="http://www.w3.org/2000/svg">
<rect width="21" height="21" rx="3" fill="#FF74F7"/>
<path d="M10.9834 5.89993L8.35844 10.2606L11.1584 14.8855C11.1759 14.9207 11.1847 14.956 11.1759 14.9912C11.1672 15.0264 11.1322 15 11.0797 15.0088H9.07594C8.93594 15.0088 8.83969 15 8.77844 14.9119C8.59469 14.5419 8.40219 14.1807 8.21844 13.8108C8.03469 13.4496 7.83344 13.0796 7.62344 12.7008C7.41344 12.322 7.20344 11.9432 6.99344 11.5555H6.97594C6.79219 11.9344 6.59094 12.3132 6.38969 12.692C6.18844 13.0708 5.98719 13.4496 5.79469 13.8196C5.59344 14.1896 5.39219 14.5684 5.19094 14.9295C5.15594 15.0176 5.08594 15.0264 4.98969 15.0264H3.06468C3.02968 15.0264 3.00343 15.0441 3.00343 15C2.99468 14.9648 3.00343 14.9295 3.02093 14.9031L5.74219 10.4103L3.09093 5.89112C3.06468 5.85588 3.05593 5.82064 3.07343 5.80302C3.09093 5.77659 3.12593 5.76779 3.16093 5.76779H5.14719C5.19094 5.76779 5.23469 5.77659 5.26969 5.7854C5.30469 5.80302 5.33094 5.82945 5.35719 5.86469C5.52344 6.24349 5.71594 6.6223 5.91719 7.0011C6.12719 7.3799 6.32844 7.7499 6.54719 8.11989C6.75719 8.48988 6.94969 8.85988 7.13344 9.23868H7.15094C7.33469 8.85107 7.52719 8.47227 7.71969 8.10227C7.91219 7.73228 8.11344 7.36228 8.31469 6.99229C8.51594 6.6223 8.70844 6.24349 8.90094 5.88231C8.90969 5.84707 8.92719 5.81183 8.95344 5.79421C8.98844 5.77659 9.02344 5.76779 9.06719 5.77659H10.9134C10.9572 5.76779 11.0009 5.79421 11.0097 5.83826C11.0184 5.84707 11.0009 5.88231 10.9834 5.89993V5.89993ZM15.026 15.1938C14.3785 15.2026 13.731 15.0705 13.1447 14.7974C12.5934 14.5419 12.1384 14.1191 11.8234 13.5993C11.4997 13.062 11.3422 12.3924 11.3422 11.5908C11.3334 10.9389 11.4997 10.2958 11.8234 9.73201C12.1559 9.1594 12.6372 8.68369 13.2147 8.36655C13.8272 8.02299 14.5622 7.85561 15.4285 7.85561C15.4722 7.85561 15.5335 7.85561 15.6122 7.86442C15.691 7.87323 15.7785 7.87323 15.8835 7.88204V5.09827C15.8835 5.03661 15.9097 5.00137 15.971 5.00137H17.7472C17.791 4.99256 17.826 5.0278 17.8347 5.06303V13.4672C17.8347 13.6258 17.8435 13.8019 17.8522 13.9957C17.8697 14.1807 17.8785 14.3569 17.8872 14.5067C17.8872 14.5684 17.861 14.6212 17.7997 14.6476C17.3447 14.8414 16.8635 14.9824 16.3735 15.0705C15.9272 15.1498 15.481 15.1938 15.026 15.1938V15.1938ZM15.8835 13.4319V9.55582C15.8047 9.5382 15.726 9.52058 15.6472 9.51177C15.551 9.50296 15.4547 9.49415 15.3585 9.49415C15.0172 9.49415 14.676 9.56463 14.3697 9.7232C14.0722 9.87296 13.8185 10.0932 13.626 10.3751C13.4335 10.657 13.3372 11.0358 13.3372 11.4939C13.3285 11.8022 13.381 12.1105 13.486 12.4013C13.5735 12.6391 13.7047 12.8505 13.8797 13.0267C14.046 13.1853 14.2472 13.3086 14.4747 13.3791C14.711 13.4584 14.956 13.4936 15.201 13.4936C15.3322 13.4936 15.4547 13.4848 15.5685 13.476C15.6822 13.4848 15.7785 13.4672 15.8835 13.4319V13.4319Z" fill="#470137"/>
</svg>
