<svg width="21" height="21" viewBox="0 0 21 21" fill="none" xmlns="http://www.w3.org/2000/svg">
<rect width="21" height="21" rx="3" fill="#8512FB"/>
<path d="M8.62544 9.2619V6.22132H11.0836C11.3178 6.22132 11.5435 6.24254 11.7608 6.28506C11.9782 6.3275 12.1706 6.40332 12.3378 6.51261C12.505 6.62189 12.6388 6.77361 12.7391 6.96777C12.8394 7.16202 12.8896 7.41086 12.8896 7.71423C12.8896 8.26048 12.7391 8.65501 12.4381 8.89773C12.1371 9.14054 11.7525 9.2619 11.2842 9.2619H8.62544V9.2619ZM6 4V17H11.7859C12.3211 17 12.8423 16.9272 13.3495 16.7815C13.8568 16.6358 14.3082 16.4113 14.704 16.1079C15.0997 15.8044 15.4147 15.4129 15.6488 14.9335C15.883 14.454 16 13.8865 16 13.2311C16 12.4178 15.8188 11.7229 15.4565 11.1464C15.0942 10.5698 14.5451 10.1662 13.8093 9.93555C14.3445 9.65643 14.7486 9.2983 15.0218 8.86133C15.2949 8.42436 15.4314 7.87819 15.4314 7.22266C15.4314 6.61577 15.3395 6.106 15.1555 5.69327C14.9716 5.28063 14.7124 4.94984 14.3779 4.70099C14.0435 4.45215 13.6422 4.27308 13.1739 4.16388C12.7057 4.0546 12.1873 4 11.6187 4H6V4ZM8.62544 14.7787V11.2101H11.4849C12.0535 11.2101 12.5106 11.3526 12.8562 11.638C13.2018 11.9232 13.3746 12.3996 13.3746 13.0672C13.3746 13.4071 13.3216 13.6863 13.2157 13.9047C13.1098 14.1232 12.9677 14.2963 12.7893 14.4237C12.6109 14.5511 12.4047 14.6421 12.1706 14.6968C11.9364 14.7513 11.6912 14.7787 11.4348 14.7787H8.62544V14.7787Z" fill="white"/>
</svg>
