<svg width="21" height="21" viewBox="0 0 21 21" fill="none" xmlns="http://www.w3.org/2000/svg">
<rect width="21" height="21" rx="3" fill="white"/>
<g clip-path="url(#clip0)">
<path d="M8.25053 18C9.49228 18 10.5001 16.9547 10.5001 15.6667V13.3334H8.25053C7.00877 13.3334 6.00098 14.3787 6.00098 15.6667C6.00098 16.9547 7.00877 18 8.25053 18Z" fill="#0ACF83"/>
<path d="M6.00098 11C6.00098 9.71196 7.00877 8.66663 8.25053 8.66663H10.5001V13.3333H8.25053C7.00877 13.3333 6.00098 12.288 6.00098 11Z" fill="#A259FF"/>
<path d="M6.00049 6.33333C6.00049 5.04533 7.00829 4 8.25004 4H10.4996V8.66667H8.25004C7.00829 8.66667 6.00049 7.62133 6.00049 6.33333Z" fill="#F24E1E"/>
<path d="M10.5 4H12.7496C13.9913 4 14.9991 5.04533 14.9991 6.33333C14.9991 7.62133 13.9913 8.66667 12.7496 8.66667H10.5V4Z" fill="#FF7262"/>
<path d="M14.9991 11C14.9991 12.288 13.9913 13.3333 12.7496 13.3333C11.5078 13.3333 10.5 12.288 10.5 11C10.5 9.71196 11.5078 8.66663 12.7496 8.66663C13.9913 8.66663 14.9991 9.71196 14.9991 11Z" fill="#1ABCFE"/>
</g>
<defs>
<clipPath id="clip0">
<rect width="9" height="14" fill="white" transform="translate(6 4)"/>
</clipPath>
</defs>
</svg>
