<svg width="21" height="21" viewBox="0 0 21 21" fill="none" xmlns="http://www.w3.org/2000/svg">
<rect width="21" height="21" rx="3" fill="#FF9E57"/>
<path d="M15.9233 4.09868C15.8685 4.03567 15.7898 4 15.7076 4H4.29239C4.21022 4 4.13147 4.03567 4.07669 4.09868C4.02076 4.16168 3.99337 4.24609 4.00136 4.33169L5.02967 16.3308C5.03994 16.4569 5.1244 16.5615 5.24081 16.5971L9.91897 17.9881C9.94408 17.9964 9.97147 18 9.99886 18C10.0262 18 10.0525 17.9964 10.0787 17.9881L14.7603 16.5971C14.8767 16.5615 14.9601 16.4569 14.9715 16.3308L15.9986 4.33169C16.0066 4.24609 15.9792 4.16168 15.9233 4.09868ZM13.4615 8.2359H7.96507L8.09632 9.78499H13.3292L12.9365 14.3633L9.99772 15.2882L9.96919 15.2787L7.06459 14.3621L6.90595 12.4968H8.32915L8.39078 13.2208L10.0148 13.5751L11.6092 13.2208L11.7793 11.2615H6.79981L6.41292 6.75577H13.5882L13.4615 8.2359Z" fill="#111827"/>
</svg>
