<svg width="21" height="21" viewBox="0 0 21 21" fill="none" xmlns="http://www.w3.org/2000/svg">
<rect width="21" height="21" rx="3" fill="#FFED5C"/>
<path d="M13.2388 15.0573C13.6489 15.7545 14.2231 16.2467 15.1665 16.2467C15.9868 16.2467 16.52 15.8365 16.52 15.2623C16.52 14.6061 15.9868 14.36 15.0845 13.9498L14.5923 13.7448C13.1567 13.1295 12.2134 12.3912 12.2134 10.7916C12.2134 9.31506 13.3208 8.16663 15.0845 8.16663C16.356 8.16663 17.2583 8.6178 17.8735 9.76624L16.356 10.7506C16.0278 10.1354 15.6587 9.88928 15.0845 9.88928C14.5103 9.88928 14.1411 10.2584 14.1411 10.7506C14.1411 11.3248 14.5103 11.5709 15.3716 11.9401L15.8638 12.1451C17.5454 12.8834 18.4888 13.5807 18.4888 15.2623C18.4888 17.026 17.0942 18.0104 15.2075 18.0104C13.3618 18.0104 12.1724 17.149 11.5981 16.0006L13.2388 15.0573ZM6.26611 15.2213C6.59424 15.7545 6.84033 16.2467 7.5376 16.2467C8.19385 16.2467 8.604 16.0006 8.604 15.0162V8.20764H10.5728V14.9342C10.5728 16.985 9.3833 17.8873 7.61963 17.8873C6.02002 17.8873 5.11768 17.067 4.6665 16.0826L6.26611 15.2213Z" fill="#111827"/>
</svg>
