<svg width="21" height="21" viewBox="0 0 21 21" fill="none" xmlns="http://www.w3.org/2000/svg">
<rect width="21" height="21" rx="3" fill="#F2F2F2"/>
<path d="M16.8166 14.828C16.0004 14.8087 15.3679 14.8863 14.8374 15.0997C14.6844 15.1578 14.4395 15.1579 14.4191 15.3422C14.5008 15.4198 14.5109 15.5459 14.5824 15.6526C14.7049 15.8465 14.919 16.1085 15.1129 16.2443C15.3271 16.3995 15.5414 16.5547 15.7658 16.6905C16.1637 16.9233 16.6126 17.0591 17.0002 17.2919C17.2247 17.4276 17.4491 17.6023 17.6735 17.7478C17.7858 17.8254 17.8571 17.9515 18 18V17.9709C17.9286 17.8836 17.9082 17.7575 17.8368 17.6605C17.7348 17.5635 17.6328 17.4762 17.5307 17.3792C17.2349 17.0009 16.8676 16.6711 16.4697 16.3995C16.1433 16.1861 15.4291 15.8951 15.2965 15.5362C15.2965 15.5362 15.2862 15.5265 15.2761 15.5168C15.5005 15.4974 15.7658 15.4198 15.98 15.3616C16.3269 15.2743 16.6432 15.2937 17.0002 15.2064C17.1634 15.1676 17.3267 15.1191 17.4899 15.0706V14.9833C17.3063 14.8087 17.1737 14.5759 16.9798 14.411C16.4595 13.9841 15.8882 13.5671 15.2965 13.2179C14.9802 13.0239 14.5721 12.8977 14.2355 12.7329C14.1131 12.6746 13.909 12.6456 13.8376 12.5486C13.6539 12.3352 13.5519 12.0539 13.4193 11.8016C13.1236 11.2681 12.8378 10.6765 12.5827 10.1139C12.3992 9.73555 12.2869 9.35722 12.0625 9.00805C11.0117 7.35904 9.86906 6.35995 8.11431 5.38021C7.73683 5.17653 7.28799 5.08921 6.80848 4.98253C6.5535 4.97279 6.29838 4.95344 6.04333 4.94371C5.88013 4.87579 5.71686 4.69153 5.57401 4.60421C4.99261 4.25497 3.49285 3.49844 3.06436 4.49753C2.7889 5.12803 3.47244 5.7488 3.70707 6.06895C3.88058 6.29204 4.10497 6.54421 4.2274 6.79645C4.29883 6.96124 4.31918 7.13595 4.39061 7.31054C4.55388 7.73724 4.70684 8.21263 4.92112 8.61037C5.03338 8.81405 5.15575 9.02746 5.29861 9.21173C5.38021 9.3184 5.523 9.36696 5.55365 9.54155C5.41087 9.73555 5.40062 10.0266 5.31896 10.2691C4.95171 11.3651 5.09457 12.7232 5.61484 13.5282C5.77804 13.7707 6.16577 14.3043 6.68604 14.1006C7.14513 13.926 7.04311 13.3731 7.17572 12.8881C7.20638 12.7716 7.18596 12.6941 7.24715 12.6165C7.2472 12.6262 7.24715 12.6359 7.24715 12.6359C7.39 12.9075 7.53279 13.1694 7.6654 13.441C7.9817 13.9162 8.53257 14.411 8.99165 14.7408C9.23659 14.9153 9.43038 15.2161 9.73644 15.3228V15.2937H9.71602C9.65477 15.2063 9.563 15.1676 9.48139 15.0997C9.29777 14.9251 9.09367 14.7117 8.95088 14.5177C8.52245 13.9744 8.1449 13.3731 7.80825 12.7522C7.64505 12.4516 7.5022 12.1217 7.36958 11.8211C7.30833 11.7046 7.30833 11.5301 7.20631 11.4719C7.05329 11.6852 6.8289 11.8696 6.71664 12.1315C6.5229 12.5486 6.50242 13.0627 6.43099 13.5962C6.39022 13.6059 6.41058 13.5962 6.39016 13.6156C6.06375 13.5379 5.95149 13.2179 5.82905 12.9462C5.52299 12.2576 5.47199 11.1517 5.73727 10.3564C5.8087 10.1526 6.11476 9.51246 5.99232 9.31846C5.93114 9.13414 5.72703 9.02746 5.61484 8.88196C5.48223 8.69763 5.33937 8.46487 5.24759 8.26114C5.00272 7.71796 4.88029 7.11654 4.61506 6.5733C4.49263 6.32106 4.27841 6.05921 4.10497 5.82645C3.91117 5.56453 3.69689 5.38021 3.54386 5.06979C3.49291 4.96312 3.42142 4.78853 3.50303 4.67212C3.52344 4.59453 3.56421 4.56544 3.64588 4.54603C3.77849 4.43929 4.15597 4.57512 4.28858 4.63329C4.66607 4.77873 4.9823 4.91462 5.2986 5.11829C5.44139 5.21529 5.59442 5.39962 5.77804 5.44812H5.99232C6.31879 5.51597 6.68604 5.46753 6.99209 5.5548C7.53285 5.71965 8.02246 5.96221 8.4612 6.22412C9.79769 7.02921 10.8994 8.17387 11.6442 9.54155C11.7667 9.76458 11.8176 9.96838 11.9299 10.2011C12.1441 10.6765 12.4094 11.1615 12.6236 11.6271C12.8378 12.0829 13.0418 12.5486 13.3479 12.9269C13.501 13.1305 14.113 13.2372 14.3885 13.344C14.5925 13.4312 14.9088 13.5089 15.0924 13.6156C15.4393 13.8192 15.7862 14.0521 16.1126 14.2752C16.2759 14.3915 16.7859 14.6341 16.8166 14.828L16.8166 14.828Z" fill="#00546B"/>
</svg>
