<svg width="21" height="21" viewBox="0 0 21 21" fill="none" xmlns="http://www.w3.org/2000/svg">
<rect width="21" height="21" rx="3" fill="#B4FF59"/>
<path d="M10.4998 18.8125C10.2755 18.8126 10.0552 18.7536 9.86095 18.6415L7.82795 17.438C7.52455 17.2682 7.67239 17.2082 7.77273 17.1732C8.09542 17.0735 8.40439 16.9339 8.69245 16.7575C8.71657 16.7464 8.74312 16.7416 8.76962 16.7435C8.79611 16.7455 8.82167 16.7542 8.84386 16.7688L10.406 17.6969C10.4351 17.7122 10.4675 17.7203 10.5004 17.7203C10.5333 17.7203 10.5657 17.7122 10.5948 17.6969L16.6867 14.1807C16.7152 14.1636 16.7388 14.1394 16.7551 14.1105C16.7715 14.0815 16.78 14.0488 16.7799 14.0156V6.98204C16.7799 6.94829 16.7713 6.91509 16.7547 6.88566C16.7382 6.85623 16.7144 6.83156 16.6855 6.81401L10.5936 3.30079C10.5649 3.28462 10.5325 3.27612 10.4995 3.27612C10.4666 3.27612 10.4341 3.28462 10.4054 3.30079L4.31711 6.8152C4.28807 6.83238 4.26395 6.85676 4.2471 6.88599C4.23025 6.91522 4.22123 6.94831 4.22092 6.98204V14.0126C4.22101 14.0458 4.2299 14.0783 4.2467 14.1069C4.2635 14.1355 4.28759 14.1591 4.31652 14.1753L5.98733 15.1396C6.8928 15.592 7.44736 15.0588 7.44736 14.5233V7.58173C7.44736 7.53449 7.46613 7.48918 7.49953 7.45578C7.53294 7.42237 7.57824 7.40361 7.62548 7.40361H8.39736C8.4446 7.40361 8.48991 7.42237 8.52331 7.45578C8.55672 7.48918 8.57548 7.53449 8.57548 7.58173V14.5239C8.57548 15.7321 7.91761 16.4239 6.77167 16.4239C6.2773 16.4325 5.79068 16.3003 5.36864 16.0427L3.7673 15.1241C3.5729 15.0109 3.41159 14.8487 3.29949 14.6537C3.18738 14.4586 3.1284 14.2376 3.12842 14.0126V6.98204C3.12784 6.75673 3.18658 6.53524 3.29872 6.33982C3.41087 6.1444 3.57247 5.98194 3.7673 5.86876L9.85976 2.35139C10.056 2.24402 10.2761 2.18774 10.4998 2.18774C10.7235 2.18774 10.9436 2.24402 11.1399 2.35139L17.2318 5.86876C17.4261 5.98175 17.5875 6.14374 17.6997 6.33857C17.8119 6.5334 17.8711 6.75425 17.8712 6.97908V14.0126C17.8709 14.2376 17.8117 14.4586 17.6995 14.6535C17.5873 14.8485 17.4261 15.0108 17.2318 15.1241L11.1399 18.6415C10.9453 18.7538 10.7245 18.8128 10.4998 18.8125V18.8125Z" fill="#111827" stroke="#111827" stroke-width="0.3"/>
<path d="M9.34473 11.6596C9.34473 11.6124 9.36349 11.5671 9.3969 11.5337C9.4303 11.5003 9.47561 11.4815 9.52285 11.4815H10.3108C10.3529 11.4816 10.3935 11.4967 10.4256 11.524C10.4577 11.5512 10.479 11.589 10.4859 11.6305C10.6047 12.4327 10.9609 12.837 12.5718 12.837C13.8549 12.837 14.4017 12.5467 14.4017 11.8657C14.4017 11.4732 14.2467 11.1817 12.2523 10.9863C10.5851 10.8213 9.55432 10.4519 9.55432 9.11957C9.55432 7.89051 10.5904 7.15723 12.3271 7.15723C14.2788 7.15723 15.2448 7.8347 15.3671 9.2882C15.369 9.31246 15.3659 9.33685 15.358 9.35987C15.35 9.38288 15.3375 9.40402 15.3211 9.42199C15.3046 9.43996 15.2847 9.45438 15.2625 9.46435C15.2403 9.47433 15.2163 9.47964 15.192 9.47998H14.3987C14.3589 9.47942 14.3205 9.46555 14.2895 9.44058C14.2585 9.41562 14.2367 9.38099 14.2277 9.34223C14.0383 8.49851 13.5746 8.22895 12.3277 8.22895C10.9265 8.22895 10.7638 8.71701 10.7638 9.08276C10.7638 9.5257 10.9562 9.65513 12.8479 9.9051C14.7199 10.1527 15.6094 10.503 15.6094 11.8188C15.6094 13.1464 14.5026 13.9064 12.5724 13.9064C9.90345 13.9099 9.34473 12.6862 9.34473 11.6596Z" fill="#111827" stroke="#111827" stroke-width="0.3"/>
</svg>
