<svg width="21" height="21" viewBox="0 0 21 21" fill="none" xmlns="http://www.w3.org/2000/svg">
<rect width="21" height="21" rx="3" fill="#A3A9FF"/>
<path d="M5.81334 6.96914H2.64091C2.6054 6.96712 2.57019 6.9767 2.5406 6.99643C2.511 7.01616 2.48862 7.04497 2.47682 7.07853L1 14.7908C1 14.9549 1.16409 14.9549 1.16409 14.9549H2.805C2.96909 14.9549 2.96909 14.8455 2.96909 14.8455L3.35197 12.9311H4.82879C7.12607 12.9311 8.27471 11.3996 8.54819 10.0322C8.82168 8.66474 8.60289 6.96914 5.81334 6.96914ZM6.5244 9.92278C6.30561 10.962 5.59455 11.3996 4.61 11.3996H3.62546L4.22713 8.50065H5.21167C6.68849 8.50065 6.63379 9.04762 6.5244 9.92278Z" fill="#111827"/>
<path d="M17.5423 7.0143H14.3699C14.3344 7.01229 14.2992 7.02187 14.2696 7.0416C14.24 7.06133 14.2176 7.09014 14.2058 7.1237L12.729 14.836C12.729 15.0001 12.8931 15.0001 12.8931 15.0001H14.534C14.6981 15.0001 14.6981 14.8907 14.6981 14.8907L15.081 12.9763H16.5578C18.8551 12.9763 20.0037 11.4448 20.2772 10.0773C20.5507 8.70991 20.3319 7.0143 17.5423 7.0143ZM18.2534 9.96794C18.0346 11.0072 17.3236 11.4448 16.339 11.4448H15.3545L15.9561 8.54582H16.9407C18.4175 8.54582 18.3628 9.09279 18.2534 9.96794Z" fill="#111827"/>
<path d="M11.2659 12.9311C11.0471 12.9311 11.1018 12.7123 11.1018 12.7123L11.7582 9.37576C11.7582 8.93819 12.0863 8.50061 10.7736 8.55531H9.78906L8.9686 12.8217C8.9686 12.8217 8.9686 12.9858 8.74982 12.9858H7.1636C6.99951 12.9858 6.99951 12.8217 6.99951 12.8217L8.53103 5.10939C8.53103 5.10939 8.53103 5 8.74982 5H10.3907C10.5548 5 10.5001 5.16409 10.5001 5.16409L10.1172 7.02379H11.5394C13.5085 7.02379 14.0007 7.95364 13.8366 9.04758L13.1256 12.8217C13.1256 12.8217 13.1256 12.9858 12.8521 12.9858L11.2659 12.9311Z" fill="#111827"/>
</svg>
