<svg width="21" height="21" viewBox="0 0 21 21" fill="none" xmlns="http://www.w3.org/2000/svg">
<rect width="21" height="21" rx="3" fill="#3DFFE8"/>
<path d="M16.8661 11.2288C16.7171 11.0357 16.5555 10.8425 16.3827 10.65C16.5015 10.5122 16.6146 10.3741 16.7211 10.2361C17.8218 8.809 18.1343 7.51438 17.601 6.59082C17.0678 5.66723 15.7906 5.29057 14.0041 5.5302C13.8158 5.55548 13.6236 5.58751 13.4283 5.62556C13.3618 5.43126 13.2915 5.24304 13.217 5.06197C12.5313 3.39522 11.5664 2.47729 10.5 2.47729C9.43355 2.47729 8.46864 3.39522 7.78304 5.06197C7.70855 5.24304 7.63818 5.43126 7.57172 5.62556C7.37641 5.58754 7.18415 5.55548 6.99587 5.5302C5.20965 5.2906 3.93222 5.66723 3.39898 6.59082C2.86574 7.51441 3.17824 8.809 4.27888 10.2361C4.38534 10.3741 4.49849 10.5122 4.61727 10.65C4.44448 10.8425 4.28286 11.0356 4.13389 11.2288C3.03325 12.6559 2.72075 13.9506 3.25399 14.8741C3.68242 15.6162 4.591 16.0051 5.85818 16.0051C6.16812 16.0051 6.49978 15.9818 6.85084 15.9347C7.07695 15.9044 7.30869 15.8644 7.54476 15.8157C7.61902 16.0384 7.69839 16.2534 7.78304 16.4592C8.46864 18.1259 9.43355 19.0439 10.5 19.0439C11.5664 19.0439 12.5313 18.1259 13.2169 16.4592C13.3016 16.2534 13.381 16.0384 13.4552 15.8157C13.6913 15.8644 13.923 15.9044 14.1491 15.9347C14.5003 15.9818 14.8318 16.0051 15.1418 16.0051C16.4089 16.0051 17.3176 15.6161 17.746 14.8741C18.2793 13.9505 17.9668 12.6559 16.8661 11.2288V11.2288ZM15.0023 6.42888C15.8896 6.42888 16.5167 6.65411 16.7604 7.07614C17.0792 7.6284 16.7847 8.56409 15.9525 9.64328C15.8732 9.74611 15.7896 9.849 15.7027 9.95186C15.2161 9.4889 14.6683 9.03591 14.0724 8.60421C13.99 7.88534 13.8663 7.19841 13.7044 6.55973C14.1795 6.47204 14.6158 6.42888 15.0023 6.42888V6.42888ZM11.7886 13.09C11.3523 13.3419 10.9216 13.5679 10.5003 13.7688C10.0787 13.5678 9.64794 13.3421 9.21139 13.09C8.72976 12.8119 8.26884 12.5176 7.834 12.2119C7.7975 11.7476 7.77776 11.2631 7.77776 10.7606C7.77776 10.1976 7.80245 9.65726 7.84788 9.14269C8.23564 8.87643 8.64298 8.61939 9.06637 8.37493C9.55301 8.09398 10.0324 7.84568 10.5 7.62801C10.9675 7.84568 11.4469 8.09398 11.9336 8.37493C12.357 8.61939 12.7643 8.87643 13.1521 9.14269C13.1975 9.65726 13.2222 10.1976 13.2222 10.7606C13.2222 11.2631 13.2024 11.7476 13.1659 12.2119C12.7311 12.5176 12.2702 12.8119 11.7886 13.09V13.09ZM13.0179 13.4787C12.9528 13.8919 12.874 14.2832 12.7834 14.65C12.4233 14.5454 12.0482 14.4189 11.6613 14.2697C11.866 14.161 12.0704 14.0481 12.2739 13.9307C12.5274 13.7843 12.7755 13.6333 13.0179 13.4787ZM9.33858 14.2697C8.95163 14.4189 8.57662 14.5453 8.21655 14.6499C8.12599 14.2832 8.0471 13.8918 7.98206 13.4787C8.22445 13.6333 8.47252 13.7843 8.72601 13.9306C8.92953 14.0481 9.13389 14.161 9.33858 14.2697ZM6.81891 11.4383C6.51152 11.1836 6.22352 10.9242 5.95777 10.6623C6.22707 10.4055 6.51725 10.1515 6.82593 9.90245C6.81354 10.1857 6.80707 10.472 6.80707 10.7606C6.80707 10.988 6.81118 11.214 6.81891 11.4383ZM8.00892 7.87787C8.07418 7.49111 8.15171 7.12451 8.23956 6.78014C8.58445 6.87653 8.94386 6.99353 9.3147 7.1314C9.0695 7.25937 8.82466 7.39365 8.58105 7.53431C8.3871 7.64626 8.19643 7.76097 8.00892 7.87787V7.87787ZM11.6852 7.13137C12.0561 6.9935 12.4155 6.87647 12.7604 6.78011C12.8483 7.12451 12.9258 7.49111 12.9911 7.87787C12.8036 7.76097 12.6129 7.64626 12.419 7.53431C12.1753 7.39362 11.9305 7.25934 11.6852 7.13137ZM14.174 9.90245C14.4827 10.1515 14.7729 10.4055 15.0422 10.6623C14.7765 10.9242 14.4885 11.1836 14.1811 11.4383C14.1888 11.214 14.1929 10.988 14.1929 10.7606C14.1929 10.472 14.1864 10.1857 14.174 9.90245V9.90245ZM10.5 3.44799C11.2021 3.44799 11.9479 4.34113 12.481 5.85199C11.8387 6.03251 11.1729 6.27185 10.5 6.56442C9.8271 6.27185 9.16127 6.03254 8.51896 5.85199C9.05206 4.34113 9.79788 3.44799 10.5 3.44799ZM4.2396 7.07617C4.48331 6.65408 5.11016 6.42891 5.9977 6.42891C6.38413 6.42891 6.82043 6.47207 7.29559 6.55979C7.13371 7.19848 7.00997 7.88541 6.92766 8.60424C6.33172 9.03594 5.78395 9.48894 5.29734 9.9519C5.21037 9.84903 5.12685 9.74614 5.04755 9.64331C4.21524 8.56412 3.92076 7.62843 4.2396 7.07617ZM5.85271 15.036C4.96543 15.036 4.33829 14.8108 4.09461 14.3888C3.77577 13.8365 4.07025 12.9008 4.90252 11.8216C5.02111 11.6678 5.14856 11.5139 5.28411 11.3602C5.76522 11.8332 6.3113 12.2971 6.90834 12.7402C6.98694 13.493 7.11034 14.2131 7.27533 14.8814C6.75151 14.9853 6.27279 15.0361 5.85271 15.036V15.036ZM10.5 18.0732C9.78426 18.0732 9.0232 17.1449 8.48828 15.5804C9.14143 15.3905 9.81775 15.1405 10.5 14.8366C11.1822 15.1405 11.8585 15.3905 12.5117 15.5804C11.9768 17.1449 11.2157 18.0732 10.5 18.0732ZM16.9054 14.3888C16.5463 15.0107 15.3552 15.2048 13.7246 14.8814C13.8896 14.2131 14.013 13.493 14.0916 12.7402C14.6887 12.2971 15.2348 11.8332 15.7158 11.3602C15.8514 11.5139 15.9788 11.6679 16.0974 11.8216C16.9298 12.9008 17.2242 13.8365 16.9054 14.3888Z" fill="#111827"/>
<path d="M10.5007 12.2603C11.329 12.2603 12.0004 11.5889 12.0004 10.7606C12.0004 9.93232 11.329 9.26086 10.5007 9.26086C9.67243 9.26086 9.00098 9.93232 9.00098 10.7606C9.00098 11.5889 9.67243 12.2603 10.5007 12.2603Z" fill="#111827"/>
</svg>
