<svg width="21" height="21" viewBox="0 0 21 21" fill="none" xmlns="http://www.w3.org/2000/svg">
<rect width="21" height="21" rx="3" fill="#FF3479"/>
<path d="M14.9446 5.59044C14.6237 4.06311 12.5381 3.56118 10.5643 4.41252C9.38961 4.91919 8.11771 5.71452 7.20319 6.75285C6.11583 7.98764 5.94265 9.06216 6.01398 9.51109C6.26595 11.0953 8.05419 12.131 8.78915 12.8997V12.9044C8.57232 13.0341 6.986 14.0086 6.61479 15.0052C6.223 16.0564 6.67725 16.8108 6.97784 16.9125C7.9094 17.227 8.86509 16.6613 9.37896 15.7311C9.87473 14.8333 9.83356 13.6743 9.61815 13.0974C9.91519 13.0022 10.2619 12.9595 10.702 13.022C11.9444 13.1982 12.1882 14.1401 12.1414 14.5343C12.0949 14.9285 11.834 15.1452 11.7471 15.2107C11.6598 15.2762 11.6335 15.299 11.6406 15.3473C11.6513 15.4179 11.6914 15.4153 11.7659 15.4003C11.8681 15.3792 12.4182 15.0797 12.4419 14.352C12.4717 13.4283 11.7428 12.3951 10.4518 12.4219C9.92015 12.4331 9.58586 12.4942 9.34418 12.6037C9.32644 12.5791 9.30799 12.5546 9.28953 12.53C8.4914 11.496 7.01581 10.7648 7.07827 9.37495C7.10098 8.86957 7.24577 7.53913 9.91341 5.9252C12.0988 4.60295 13.8483 4.96701 14.1507 5.77312C14.5826 6.92519 13.2156 9.06604 10.9461 9.37495C10.0813 9.49257 9.62596 9.08585 9.51275 8.9342C9.39351 8.77479 9.37577 8.76746 9.33141 8.79762C9.25901 8.84631 9.30479 8.98719 9.33141 9.07121C9.39919 9.28533 9.67742 9.6649 10.1512 9.85404C10.5682 10.0203 11.5835 10.1113 12.8114 9.53479C14.1862 8.88853 15.26 7.09192 14.9446 5.59044ZM9.09435 13.3732C9.19726 13.8359 9.18591 14.2676 9.0798 14.6584C9.06809 14.7019 9.05495 14.7445 9.04076 14.7872C9.02656 14.8294 9.0113 14.8716 8.99498 14.913C8.913 15.1198 8.80263 15.3132 8.66778 15.492C8.25612 16.037 7.68121 16.243 7.43492 16.0694C7.16876 15.8819 7.3022 15.1138 7.77916 14.5011C8.29232 13.8423 9.03082 13.4188 9.03082 13.4188L9.02976 13.4162C9.05105 13.402 9.0727 13.3878 9.09435 13.3732Z" fill="white" stroke="white" stroke-width="0.2"/>
</svg>
