<svg width="21" height="21" viewBox="0 0 21 21" fill="none" xmlns="http://www.w3.org/2000/svg">
<rect width="21" height="21" rx="3" fill="#F2F2F2"/>
<path d="M13.8059 4.08096C13.8671 4.11087 15.6552 4.96399 16.5285 5.3808C16.8169 5.51832 16.9999 5.80898 16.9999 6.12825V14.861C16.9999 15.18 16.8182 15.4703 16.5308 15.6085C15.7024 16.0077 14.0563 16.8004 13.9467 16.8524C13.8661 16.8908 13.6541 17.0049 13.4824 17.0049C13.262 17.0049 13.1141 16.9022 12.9688 16.7676L13.7487 14.31V4.55759L13.0159 4.18857C13.1726 4.03544 13.3898 4 13.5182 4C13.6359 4 13.7318 4.04487 13.8059 4.08096Z" fill="url(#paint0_linear)"/>
<path d="M5.62098 13.7199L13.749 7.5351V4.59501C13.749 4.17268 13.2087 4.00719 12.9892 4.21007C12.7763 4.40644 4.2093 12.2058 4.2093 12.2058C3.91669 12.4757 3.93327 12.9429 4.24409 13.1916C4.24409 13.1916 4.67455 13.5921 4.83028 13.7033C5.06957 13.874 5.38397 13.8935 5.62098 13.7199Z" fill="url(#paint1_linear)"/>
<path d="M5.62098 7.28512L13.749 13.48V16.3317C13.749 16.7211 13.2874 17.0446 12.9691 16.7676L4.2093 8.79921C3.91669 8.52936 3.93327 8.06216 4.24409 7.81344C4.24409 7.81344 4.67455 7.41289 4.83028 7.3017C5.06957 7.13101 5.38397 7.1115 5.62098 7.28512Z" fill="#0288D1"/>
<defs>
<linearGradient id="paint0_linear" x1="14.9842" y1="16.8001" x2="14.9842" y2="5.11192" gradientUnits="userSpaceOnUse">
<stop stop-color="#29B6F6"/>
<stop offset="1" stop-color="#13B2F6"/>
</linearGradient>
<linearGradient id="paint1_linear" x1="4.67325" y1="14.0141" x2="14.0069" y2="5.03166" gradientUnits="userSpaceOnUse">
<stop offset="0.115" stop-color="#0076BB"/>
<stop offset="0.257" stop-color="#0069B0"/>
<stop offset="0.28" stop-color="#0069B0"/>
<stop offset="0.424" stop-color="#0069B0"/>
<stop offset="0.491" stop-color="#0072B7"/>
<stop offset="0.577" stop-color="#0076BB"/>
<stop offset="0.795" stop-color="#0076BB"/>
<stop offset="1" stop-color="#006EB9"/>
</linearGradient>
</defs>
</svg>
